# xmcd
#
# Track frame offsets:
#	150
#	14801
#	27365
#	38317
#	49892
#	64222
#	75694
#	88509
#	100897
#	114343
#	127874
#	138887
#
# Disc length: 2024 seconds
#
# Revision: 1
# Processed by: cddbd v1.4PL0 Copyright (c) Steve Scherf et al.
# Submitted via: EasyCDDAExtractor 6.2.0.3
#
DISCID=9207e60c
DTITLE=Sarah Vaugh - Just Women
DYEAR=1900
DGENRE=Blues
TTITLE0=Summertime
TTITLE1=What A Difference A Day Makes
TTITLE2=I Cried For You
TTITLE3=Trouble Is A Man
TTITLE4=It's You Or No ONe
TTITLE5=I Feel So Smoochie
TTITLE6=I Get A Kick Out Of You
TTITLE7=The Man I Love
TTITLE8=Love Me Or Leave Me
TTITLE9=Just Friends
TTITLE10=I Can't Get Started
TTITLE11=I Cover The Waterfront
EXTD=
EXTT0=
EXTT1=
EXTT2=
EXTT3=
EXTT4=
EXTT5=
EXTT6=
EXTT7=
EXTT8=
EXTT9=
EXTT10=
EXTT11=
PLAYORDER=
